# xmcd CD database file
#
# Track frame offsets:
#	150
#	19717
#	36780
#
# Disc length: 612 seconds
#
# Revision: 0
# Processed by: cddbd v1.5.2PL0 Copyright (c) Steve Scherf et al.
# Submitted via: CD2WAV32(JP) R3.22
#
DISCID=19026203
DTITLE=熊木杏里 - 新しい私になって
DYEAR=2006
DGENRE=JPop
TTITLE0=新しい私になって
TTITLE1=風の記憶
TTITLE2=朝の夜ふかし (a theme song of radio program)
EXTD=
EXTT0=
EXTT1=
EXTT2=
PLAYORDER=
